<mxfile host="Electron" agent="Mozilla/5.0 (Windows NT 10.0; Win64; x64) AppleWebKit/537.36 (KHTML, like Gecko) draw.io/26.0.9 Chrome/128.0.6613.186 Electron/32.2.5 Safari/537.36" version="26.0.9">
  <diagram name="Seite-1" id="HOyfGm61N8swRw_8gBLT">
    <mxGraphModel dx="2009" dy="690" grid="1" gridSize="10" guides="1" tooltips="1" connect="1" arrows="1" fold="1" page="1" pageScale="1" pageWidth="827" pageHeight="1169" math="0" shadow="0">
      <root>
        <mxCell id="0" />
        <mxCell id="1" parent="0" />
        <mxCell id="SCJVabaA3p6mnc5F_6kQ-1" value="AoEC&amp;nbsp;&lt;div&gt;Snowflake Data Flow&lt;/div&gt;" style="shape=umlFrame;whiteSpace=wrap;html=1;pointerEvents=0;recursiveResize=0;container=1;collapsible=0;width=160;" parent="1" vertex="1">
          <mxGeometry x="-788" y="90" width="750" height="510" as="geometry" />
        </mxCell>
        <mxCell id="cNNvZ23b7x0W1rcR_j0L-7" value="Snowflake" style="rounded=0;whiteSpace=wrap;html=1;fontStyle=1;verticalAlign=top;" parent="SCJVabaA3p6mnc5F_6kQ-1" vertex="1">
          <mxGeometry x="258" y="30" width="402" height="310" as="geometry" />
        </mxCell>
        <mxCell id="cNNvZ23b7x0W1rcR_j0L-36" value="Snowflake Database" style="shape=cylinder3;whiteSpace=wrap;html=1;boundedLbl=1;backgroundOutline=1;size=5.241379310344939;strokeWidth=2;verticalAlign=top;fontStyle=1" parent="SCJVabaA3p6mnc5F_6kQ-1" vertex="1">
          <mxGeometry x="270" y="70" width="370" height="250" as="geometry" />
        </mxCell>
        <mxCell id="SCJVabaA3p6mnc5F_6kQ-6" value="Visualisation" style="shadow=0;dashed=0;html=1;strokeColor=none;fillColor=#4495D1;labelPosition=center;verticalLabelPosition=bottom;verticalAlign=top;align=center;outlineConnect=0;shape=mxgraph.veeam.2d.report;" parent="SCJVabaA3p6mnc5F_6kQ-1" vertex="1">
          <mxGeometry x="688" y="140" width="36.8" height="55.8" as="geometry" />
        </mxCell>
        <mxCell id="cNNvZ23b7x0W1rcR_j0L-1" value="Cloud (AWS)" style="ellipse;shape=cloud;whiteSpace=wrap;html=1;verticalAlign=top;fontStyle=1" parent="SCJVabaA3p6mnc5F_6kQ-1" vertex="1">
          <mxGeometry x="8" y="50" width="222" height="160" as="geometry" />
        </mxCell>
        <mxCell id="SCJVabaA3p6mnc5F_6kQ-9" value="" style="edgeStyle=elbowEdgeStyle;elbow=horizontal;endArrow=classic;html=1;curved=0;rounded=0;endSize=8;startSize=8;entryX=0;entryY=0.5;entryDx=0;entryDy=0;exitX=1;exitY=0.5;exitDx=0;exitDy=0;" parent="SCJVabaA3p6mnc5F_6kQ-1" source="cNNvZ23b7x0W1rcR_j0L-26" target="cNNvZ23b7x0W1rcR_j0L-29" edge="1">
          <mxGeometry width="50" height="50" relative="1" as="geometry">
            <mxPoint x="160" y="147.5" as="sourcePoint" />
            <mxPoint x="368" y="128.95000000000005" as="targetPoint" />
          </mxGeometry>
        </mxCell>
        <mxCell id="cNNvZ23b7x0W1rcR_j0L-8" value="Stammdaten" style="shape=mxgraph.bpmn.data2;labelPosition=center;verticalLabelPosition=bottom;align=center;verticalAlign=top;size=15;html=1;bpmnTransferType=input;" parent="SCJVabaA3p6mnc5F_6kQ-1" vertex="1">
          <mxGeometry x="88" y="230" width="40" height="60" as="geometry" />
        </mxCell>
        <mxCell id="cNNvZ23b7x0W1rcR_j0L-13" value="Stata Data&lt;div&gt;(binary)&lt;/div&gt;" style="strokeWidth=2;html=1;shape=mxgraph.flowchart.multi-document;whiteSpace=wrap;" parent="SCJVabaA3p6mnc5F_6kQ-1" vertex="1">
          <mxGeometry x="64" y="97.9" width="88" height="60" as="geometry" />
        </mxCell>
        <mxCell id="cNNvZ23b7x0W1rcR_j0L-15" value="PC" style="rounded=0;whiteSpace=wrap;html=1;verticalAlign=top;fontStyle=1" parent="SCJVabaA3p6mnc5F_6kQ-1" vertex="1">
          <mxGeometry x="32" y="210" width="188" height="210" as="geometry" />
        </mxCell>
        <mxCell id="cNNvZ23b7x0W1rcR_j0L-9" value="Masterdata" style="shape=mxgraph.bpmn.data2;labelPosition=center;verticalLabelPosition=bottom;align=center;verticalAlign=top;size=15;html=1;bpmnTransferType=input;" parent="SCJVabaA3p6mnc5F_6kQ-1" vertex="1">
          <mxGeometry x="58" y="280" width="40" height="60" as="geometry" />
        </mxCell>
        <mxCell id="cNNvZ23b7x0W1rcR_j0L-27" style="edgeStyle=orthogonalEdgeStyle;rounded=0;orthogonalLoop=1;jettySize=auto;html=1;exitX=1;exitY=0.5;exitDx=0;exitDy=0;entryX=0;entryY=0.5;entryDx=0;entryDy=0;entryPerimeter=0;" parent="SCJVabaA3p6mnc5F_6kQ-1" source="cNNvZ23b7x0W1rcR_j0L-29" target="cNNvZ23b7x0W1rcR_j0L-37" edge="1">
          <mxGeometry relative="1" as="geometry">
            <mxPoint x="440" y="128.95000000000005" as="sourcePoint" />
            <mxPoint x="475" y="242.9000000000001" as="targetPoint" />
            <Array as="points">
              <mxPoint x="458" y="128" />
              <mxPoint x="458" y="230" />
            </Array>
          </mxGeometry>
        </mxCell>
        <mxCell id="cNNvZ23b7x0W1rcR_j0L-18" value="Stage&lt;div&gt;(intern)&lt;/div&gt;" style="shape=internalStorage;whiteSpace=wrap;html=1;dx=15;dy=15;rounded=1;arcSize=8;strokeWidth=2;" parent="SCJVabaA3p6mnc5F_6kQ-1" vertex="1">
          <mxGeometry x="288" y="232.5" width="62" height="55" as="geometry" />
        </mxCell>
        <mxCell id="cNNvZ23b7x0W1rcR_j0L-22" value="Upload" style="verticalLabelPosition=bottom;verticalAlign=top;html=1;shape=hexagon;perimeter=hexagonPerimeter2;arcSize=6;size=0.27;" parent="SCJVabaA3p6mnc5F_6kQ-1" vertex="1">
          <mxGeometry x="140" y="250" width="73" height="45" as="geometry" />
        </mxCell>
        <mxCell id="cNNvZ23b7x0W1rcR_j0L-23" value="" style="edgeStyle=segmentEdgeStyle;endArrow=classic;html=1;curved=0;rounded=0;endSize=8;startSize=8;entryX=0;entryY=0.5;entryDx=0;entryDy=0;" parent="SCJVabaA3p6mnc5F_6kQ-1" target="cNNvZ23b7x0W1rcR_j0L-22" edge="1">
          <mxGeometry width="50" height="50" relative="1" as="geometry">
            <mxPoint x="98" y="310" as="sourcePoint" />
            <mxPoint x="132" y="280" as="targetPoint" />
            <Array as="points">
              <mxPoint x="98" y="320" />
              <mxPoint x="118" y="320" />
              <mxPoint x="118" y="273" />
            </Array>
          </mxGeometry>
        </mxCell>
        <mxCell id="cNNvZ23b7x0W1rcR_j0L-25" value="" style="edgeStyle=elbowEdgeStyle;elbow=horizontal;endArrow=classic;html=1;curved=0;rounded=0;endSize=8;startSize=8;entryX=0;entryY=0.5;entryDx=0;entryDy=0;exitX=1;exitY=0.5;exitDx=0;exitDy=0;" parent="SCJVabaA3p6mnc5F_6kQ-1" source="cNNvZ23b7x0W1rcR_j0L-22" target="cNNvZ23b7x0W1rcR_j0L-18" edge="1">
          <mxGeometry width="50" height="50" relative="1" as="geometry">
            <mxPoint x="161" y="132" as="sourcePoint" />
            <mxPoint x="298" y="136" as="targetPoint" />
          </mxGeometry>
        </mxCell>
        <mxCell id="cNNvZ23b7x0W1rcR_j0L-26" value="Stage&lt;div&gt;(extern)&lt;/div&gt;" style="shape=internalStorage;whiteSpace=wrap;html=1;dx=15;dy=15;rounded=1;arcSize=8;strokeWidth=2;dashed=1;" parent="SCJVabaA3p6mnc5F_6kQ-1" vertex="1">
          <mxGeometry x="288" y="100.4" width="62" height="55" as="geometry" />
        </mxCell>
        <mxCell id="cNNvZ23b7x0W1rcR_j0L-24" value="" style="edgeStyle=segmentEdgeStyle;endArrow=classic;html=1;curved=0;rounded=0;endSize=8;startSize=8;exitX=1;exitY=0.5;exitDx=0;exitDy=0;exitPerimeter=0;entryX=0;entryY=0.5;entryDx=0;entryDy=0;" parent="SCJVabaA3p6mnc5F_6kQ-1" source="cNNvZ23b7x0W1rcR_j0L-13" target="cNNvZ23b7x0W1rcR_j0L-26" edge="1">
          <mxGeometry width="50" height="50" relative="1" as="geometry">
            <mxPoint x="298" y="440" as="sourcePoint" />
            <mxPoint x="326" y="440" as="targetPoint" />
            <Array as="points" />
          </mxGeometry>
        </mxCell>
        <mxCell id="cNNvZ23b7x0W1rcR_j0L-28" value="Load" style="verticalLabelPosition=bottom;verticalAlign=top;html=1;shape=hexagon;perimeter=hexagonPerimeter2;arcSize=6;size=0.27;" parent="SCJVabaA3p6mnc5F_6kQ-1" vertex="1">
          <mxGeometry x="375" y="240" width="75" height="40" as="geometry" />
        </mxCell>
        <mxCell id="cNNvZ23b7x0W1rcR_j0L-17" value="" style="edgeStyle=segmentEdgeStyle;endArrow=classic;html=1;curved=0;rounded=0;endSize=8;startSize=8;exitX=1;exitY=0.5;exitDx=0;exitDy=0;entryX=0;entryY=0.5;entryDx=0;entryDy=0;" parent="SCJVabaA3p6mnc5F_6kQ-1" source="cNNvZ23b7x0W1rcR_j0L-18" target="cNNvZ23b7x0W1rcR_j0L-28" edge="1">
          <mxGeometry width="50" height="50" relative="1" as="geometry">
            <mxPoint x="-684" y="373" as="sourcePoint" />
            <mxPoint x="348" y="260" as="targetPoint" />
            <Array as="points" />
          </mxGeometry>
        </mxCell>
        <mxCell id="SCJVabaA3p6mnc5F_6kQ-10" value="" style="edgeStyle=segmentEdgeStyle;endArrow=classic;html=1;curved=0;rounded=0;endSize=8;startSize=8;entryX=0;entryY=0.5;entryDx=0;entryDy=0;entryPerimeter=0;exitX=1;exitY=0.5;exitDx=0;exitDy=0;" parent="SCJVabaA3p6mnc5F_6kQ-1" source="cNNvZ23b7x0W1rcR_j0L-28" target="cNNvZ23b7x0W1rcR_j0L-37" edge="1">
          <mxGeometry width="50" height="50" relative="1" as="geometry">
            <mxPoint x="448" y="260" as="sourcePoint" />
            <mxPoint x="475" y="242.9000000000001" as="targetPoint" />
            <Array as="points">
              <mxPoint x="458" y="260" />
              <mxPoint x="458" y="230" />
            </Array>
          </mxGeometry>
        </mxCell>
        <mxCell id="cNNvZ23b7x0W1rcR_j0L-29" value="Conversion &amp;amp; Load" style="verticalLabelPosition=bottom;verticalAlign=top;html=1;shape=hexagon;perimeter=hexagonPerimeter2;arcSize=6;size=0.27;" parent="SCJVabaA3p6mnc5F_6kQ-1" vertex="1">
          <mxGeometry x="375" y="107.9" width="75" height="40" as="geometry" />
        </mxCell>
        <mxCell id="cNNvZ23b7x0W1rcR_j0L-31" style="edgeStyle=orthogonalEdgeStyle;rounded=0;orthogonalLoop=1;jettySize=auto;html=1;exitX=0.5;exitY=0;exitDx=0;exitDy=0;entryX=0;entryY=0.5;entryDx=0;entryDy=0;exitPerimeter=0;" parent="SCJVabaA3p6mnc5F_6kQ-1" source="cNNvZ23b7x0W1rcR_j0L-37" target="cNNvZ23b7x0W1rcR_j0L-38" edge="1">
          <mxGeometry relative="1" as="geometry">
            <mxPoint x="548.2240000000002" y="195.98839999999996" as="sourcePoint" />
            <mxPoint x="540" y="133.95000000000005" as="targetPoint" />
            <Array as="points" />
          </mxGeometry>
        </mxCell>
        <mxCell id="cNNvZ23b7x0W1rcR_j0L-34" style="edgeStyle=orthogonalEdgeStyle;rounded=0;orthogonalLoop=1;jettySize=auto;html=1;exitX=1;exitY=0.5;exitDx=0;exitDy=0;exitPerimeter=0;" parent="SCJVabaA3p6mnc5F_6kQ-1" source="cNNvZ23b7x0W1rcR_j0L-35" target="SCJVabaA3p6mnc5F_6kQ-6" edge="1">
          <mxGeometry relative="1" as="geometry">
            <mxPoint x="637" y="242.9000000000001" as="sourcePoint" />
            <mxPoint x="669" y="170" as="targetPoint" />
            <Array as="points">
              <mxPoint x="668" y="230" />
              <mxPoint x="668" y="168" />
            </Array>
          </mxGeometry>
        </mxCell>
        <mxCell id="cNNvZ23b7x0W1rcR_j0L-35" value="Datamart" style="shape=cylinder3;whiteSpace=wrap;html=1;boundedLbl=1;backgroundOutline=1;size=5.241379310344939;" parent="SCJVabaA3p6mnc5F_6kQ-1" vertex="1">
          <mxGeometry x="568" y="210" width="60" height="40" as="geometry" />
        </mxCell>
        <mxCell id="cNNvZ23b7x0W1rcR_j0L-32" value="" style="edgeStyle=orthogonalEdgeStyle;rounded=0;orthogonalLoop=1;jettySize=auto;html=1;exitX=1;exitY=0.5;exitDx=0;exitDy=0;entryX=0.5;entryY=0;entryDx=0;entryDy=0;entryPerimeter=0;" parent="SCJVabaA3p6mnc5F_6kQ-1" source="cNNvZ23b7x0W1rcR_j0L-38" target="cNNvZ23b7x0W1rcR_j0L-35" edge="1">
          <mxGeometry relative="1" as="geometry">
            <mxPoint x="603" y="133.95000000000005" as="sourcePoint" />
            <mxPoint x="581.758" y="197.96659999999997" as="targetPoint" />
            <Array as="points">
              <mxPoint x="618" y="118" />
              <mxPoint x="618" y="180" />
              <mxPoint x="598" y="180" />
            </Array>
          </mxGeometry>
        </mxCell>
        <mxCell id="cNNvZ23b7x0W1rcR_j0L-37" value="Elementary&lt;div&gt;Data&lt;/div&gt;" style="shape=cylinder3;whiteSpace=wrap;html=1;boundedLbl=1;backgroundOutline=1;size=5.241379310344939;" parent="SCJVabaA3p6mnc5F_6kQ-1" vertex="1">
          <mxGeometry x="488" y="180" width="60" height="100" as="geometry" />
        </mxCell>
        <mxCell id="cNNvZ23b7x0W1rcR_j0L-38" value="Transformations" style="verticalLabelPosition=bottom;verticalAlign=top;html=1;shape=hexagon;perimeter=hexagonPerimeter2;arcSize=6;size=0.27;" parent="SCJVabaA3p6mnc5F_6kQ-1" vertex="1">
          <mxGeometry x="518" y="97.9" width="75" height="40" as="geometry" />
        </mxCell>
        <mxCell id="y6FW-NCAVo6f3MrTYJc9-2" value="Snowpark" style="rounded=0;whiteSpace=wrap;html=1;strokeColor=none;" vertex="1" parent="SCJVabaA3p6mnc5F_6kQ-1">
          <mxGeometry x="383.5" y="117.9" width="58" height="20" as="geometry" />
        </mxCell>
        <mxCell id="y6FW-NCAVo6f3MrTYJc9-3" value="SQL" style="rounded=0;whiteSpace=wrap;html=1;strokeColor=none;" vertex="1" parent="SCJVabaA3p6mnc5F_6kQ-1">
          <mxGeometry x="392.5" y="250" width="40" height="20" as="geometry" />
        </mxCell>
        <mxCell id="y6FW-NCAVo6f3MrTYJc9-4" value="SnowSQL" style="rounded=0;whiteSpace=wrap;html=1;strokeColor=none;" vertex="1" parent="SCJVabaA3p6mnc5F_6kQ-1">
          <mxGeometry x="148.25" y="262.5" width="56.5" height="20" as="geometry" />
        </mxCell>
        <mxCell id="y6FW-NCAVo6f3MrTYJc9-5" value="Upload" style="verticalLabelPosition=bottom;verticalAlign=top;html=1;shape=hexagon;perimeter=hexagonPerimeter2;arcSize=6;size=0.27;" vertex="1" parent="SCJVabaA3p6mnc5F_6kQ-1">
          <mxGeometry x="140" y="340" width="73" height="40" as="geometry" />
        </mxCell>
        <mxCell id="y6FW-NCAVo6f3MrTYJc9-1" value="Python" style="rounded=0;whiteSpace=wrap;html=1;strokeColor=none;" vertex="1" parent="SCJVabaA3p6mnc5F_6kQ-1">
          <mxGeometry x="155.25" y="350" width="42.5" height="20" as="geometry" />
        </mxCell>
        <mxCell id="y6FW-NCAVo6f3MrTYJc9-7" value="" style="edgeStyle=elbowEdgeStyle;elbow=horizontal;endArrow=classic;html=1;curved=0;rounded=0;endSize=8;startSize=8;exitX=1;exitY=0.5;exitDx=0;exitDy=0;entryX=0.5;entryY=1;entryDx=0;entryDy=0;entryPerimeter=0;" edge="1" parent="SCJVabaA3p6mnc5F_6kQ-1" source="y6FW-NCAVo6f3MrTYJc9-5" target="cNNvZ23b7x0W1rcR_j0L-37">
          <mxGeometry width="50" height="50" relative="1" as="geometry">
            <mxPoint x="223" y="283" as="sourcePoint" />
            <mxPoint x="418" y="320" as="targetPoint" />
            <Array as="points">
              <mxPoint x="518" y="330" />
            </Array>
          </mxGeometry>
        </mxCell>
        <mxCell id="y6FW-NCAVo6f3MrTYJc9-8" value="" style="edgeStyle=segmentEdgeStyle;endArrow=classic;html=1;curved=0;rounded=0;endSize=8;startSize=8;entryX=0;entryY=0.5;entryDx=0;entryDy=0;" edge="1" parent="SCJVabaA3p6mnc5F_6kQ-1" target="y6FW-NCAVo6f3MrTYJc9-5">
          <mxGeometry width="50" height="50" relative="1" as="geometry">
            <mxPoint x="98" y="320" as="sourcePoint" />
            <mxPoint x="150" y="283" as="targetPoint" />
            <Array as="points">
              <mxPoint x="118" y="320" />
              <mxPoint x="118" y="360" />
            </Array>
          </mxGeometry>
        </mxCell>
        <mxCell id="y6FW-NCAVo6f3MrTYJc9-9" value="SQL" style="rounded=0;whiteSpace=wrap;html=1;strokeColor=none;" vertex="1" parent="SCJVabaA3p6mnc5F_6kQ-1">
          <mxGeometry x="535.5" y="107.9" width="40" height="20" as="geometry" />
        </mxCell>
      </root>
    </mxGraphModel>
  </diagram>
</mxfile>
